<svg width="42" height="42" viewBox="0 0 42 42" fill="none" xmlns="http://www.w3.org/2000/svg">
<path d="M33.6001 5.6001H8.4001C6.8531 5.6001 5.6001 6.8531 5.6001 8.4001V33.6001C5.6001 35.1471 6.8531 36.4001 8.4001 36.4001H22.4001V23.8001H18.2001V19.6001H22.4001V17.3447C22.4001 13.0747 24.4805 11.2001 28.0295 11.2001C29.7291 11.2001 30.6279 11.3261 31.0535 11.3835V15.4001H28.6329C27.1265 15.4001 26.6001 16.1953 26.6001 17.8053V19.6001H31.0157L30.4165 23.8001H26.6001V36.4001H33.6001C35.1471 36.4001 36.4001 35.1471 36.4001 33.6001V8.4001C36.4001 6.8531 35.1457 5.6001 33.6001 5.6001Z" fill="#D4976C"/>
</svg>
