<svg width="42" height="42" viewBox="0 0 42 42" fill="none" xmlns="http://www.w3.org/2000/svg">
<path d="M29.75 5.25H12.25C8.38425 5.25 5.25 8.38425 5.25 12.25V29.75C5.25 33.6157 8.38425 36.75 12.25 36.75H29.75C33.6157 36.75 36.75 33.6157 36.75 29.75V12.25C36.75 8.38425 33.6157 5.25 29.75 5.25ZM29.8375 16.6495C29.8375 16.8 29.8375 16.9488 29.8375 17.2498C29.8375 22.9495 25.487 29.5505 17.5367 29.5505C15.1375 29.5505 12.887 28.7998 10.9375 27.601C11.2368 27.601 11.6882 27.601 11.9875 27.601C13.937 27.601 15.8882 26.8503 17.388 25.8003C15.4385 25.8003 13.9388 24.451 13.3385 22.8008C13.6378 22.8008 13.9387 22.9513 14.0892 22.9513C14.539 22.9513 14.84 22.9513 15.2898 22.8008C13.3403 22.351 11.8405 20.7007 11.8405 18.6007C12.4407 18.9 13.041 19.0505 13.79 19.201C12.5895 18.151 11.8405 16.9505 11.8405 15.4508C11.8405 14.7 11.991 13.951 12.4408 13.3507C14.5408 15.9005 17.6908 17.7013 21.2905 17.85C21.2905 17.5507 21.14 17.2498 21.14 16.8C21.14 14.4008 23.0895 12.4495 25.4905 12.4495C26.691 12.4495 27.8897 12.8993 28.6405 13.7987C29.6905 13.6483 30.59 13.1985 31.3408 12.7487C31.0415 13.7987 30.2908 14.5495 29.3913 15.148C30.2908 14.9975 31.0415 14.8488 31.941 14.3973C31.3373 15.3003 30.5882 16.0492 29.8375 16.6495Z" fill="#D4976C"/>
</svg>
