<svg width="42" height="42" viewBox="0 0 42 42" fill="none" xmlns="http://www.w3.org/2000/svg">
<path d="M20.9998 5.6001C15.1394 5.6001 7.53301 7.06846 7.53301 7.06846L7.51387 7.09033C4.84473 7.51721 2.7998 9.81077 2.7998 12.6001V21.0001V21.0028V29.4001V29.4028C2.80241 30.735 3.27982 32.0226 4.14632 33.0344C5.01282 34.0462 6.21165 34.716 7.52754 34.9235L7.53301 34.9317C7.53301 34.9317 15.1394 36.4028 20.9998 36.4028C26.8602 36.4028 34.4666 34.9317 34.4666 34.9317L34.4693 34.929C35.7867 34.7219 36.9869 34.0516 37.854 33.0386C38.7212 32.0255 39.1984 30.7363 39.1998 29.4028V29.4001V21.0028V21.0001V12.6001C39.1979 11.2675 38.7207 9.97923 37.8542 8.96683C36.9876 7.95443 35.7884 7.28423 34.4721 7.07666L34.4666 7.06846C34.4666 7.06846 26.8602 5.6001 20.9998 5.6001ZM16.7998 14.5579L27.9998 21.0001L16.7998 27.4423V14.5579Z" fill="#D4976C"/>
</svg>
