<svg width="216" height="49" viewBox="0 0 216 49" fill="none" xmlns="http://www.w3.org/2000/svg">
<rect x="0.218018" y="0.332031" width="214.965" height="48.634" rx="5" fill="black"/>
<path d="M22.582 40.966C21.21 40.966 19.95 40.882 18.802 40.714C17.654 40.574 16.688 40.35 15.904 40.042C15.148 39.762 14.644 39.426 14.392 39.034C14.784 38.754 15.092 38.432 15.316 38.068C15.568 37.676 15.778 37.186 15.946 36.598C16.142 35.982 16.31 35.226 16.45 34.33L19.012 21.058C19.32 19.322 19.88 18.006 20.692 17.11C21.532 16.214 22.806 15.766 24.514 15.766C25.438 15.766 26.208 15.948 26.824 16.312C27.44 16.648 27.79 17.096 27.874 17.656C27.118 17.964 26.614 18.496 26.362 19.252C26.138 20.008 25.942 20.778 25.774 21.562L25.27 24.082H26.446C28.07 24.054 29.358 23.788 30.31 23.284C31.262 22.78 31.948 22.122 32.368 21.31C32.816 20.498 33.026 19.63 32.998 18.706C32.998 17.138 32.312 15.934 30.94 15.094C29.596 14.254 27.678 13.834 25.186 13.834C23.926 13.834 22.666 13.988 21.406 14.296C20.146 14.604 18.998 15.094 17.962 15.766C16.926 16.438 16.086 17.306 15.442 18.37C14.826 19.406 14.518 20.666 14.518 22.15C14.49 22.934 14.56 23.676 14.728 24.376C14.896 25.048 15.204 25.818 15.652 26.686C15.288 27.022 14.854 27.274 14.35 27.442C13.874 27.61 13.426 27.694 13.006 27.694C11.998 27.694 11.13 27.456 10.402 26.98C9.70202 26.504 9.15602 25.86 8.76402 25.048C8.40002 24.236 8.21802 23.326 8.21802 22.318C8.21802 20.274 8.89002 18.412 10.234 16.732C11.606 15.052 13.58 13.708 16.156 12.7C18.732 11.692 21.868 11.188 25.564 11.188C27.3 11.188 28.966 11.328 30.562 11.608C32.158 11.86 33.572 12.266 34.804 12.826C36.036 13.358 37.002 14.072 37.702 14.968C38.402 15.836 38.752 16.9 38.752 18.16C38.752 19.14 38.514 20.064 38.038 20.932C37.59 21.8 36.96 22.57 36.148 23.242C35.364 23.886 34.468 24.418 33.46 24.838C34.3 25.09 35.112 25.468 35.896 25.972C36.68 26.448 37.31 27.106 37.786 27.946C38.29 28.758 38.528 29.78 38.5 31.012C38.472 32.524 38.108 33.896 37.408 35.128C36.708 36.36 35.686 37.41 34.342 38.278C33.026 39.146 31.374 39.804 29.386 40.252C27.426 40.728 25.158 40.966 22.582 40.966ZM23.758 38.11C25.466 38.11 26.922 37.802 28.126 37.186C29.33 36.57 30.24 35.73 30.856 34.666C31.472 33.602 31.78 32.426 31.78 31.138C31.78 29.57 31.206 28.478 30.058 27.862C28.91 27.218 27.132 26.868 24.724 26.812L23.212 34.624C23.016 35.632 22.778 36.402 22.498 36.934C22.246 37.466 21.966 37.83 21.658 38.026C21.994 38.054 22.33 38.082 22.666 38.11C23.03 38.11 23.394 38.11 23.758 38.11Z" fill="white"/>
<path d="M47.0405 40.84C45.5285 40.84 44.2965 40.504 43.3445 39.832C42.3925 39.132 41.6925 38.18 41.2445 36.976C40.7965 35.744 40.5725 34.33 40.5725 32.734C40.5725 30.634 40.8805 28.674 41.4965 26.854C42.1125 25.034 42.9665 23.438 44.0585 22.066C45.1785 20.694 46.4805 19.63 47.9645 18.874C49.4485 18.118 51.0585 17.74 52.7945 17.74C54.2225 17.74 55.6925 18.02 57.2045 18.58L62.6225 17.908L59.4305 34.666C59.4025 34.918 59.3605 35.212 59.3045 35.548C59.2485 35.884 59.2205 36.178 59.2205 36.43C59.2205 36.906 59.3465 37.326 59.5985 37.69C59.8785 38.026 60.2985 38.222 60.8585 38.278C60.6905 38.866 60.3825 39.356 59.9345 39.748C59.4865 40.112 58.9685 40.378 58.3805 40.546C57.8205 40.742 57.2325 40.84 56.6165 40.84C55.7765 40.84 55.0205 40.63 54.3485 40.21C53.7045 39.818 53.2845 39.23 53.0885 38.446C52.3605 39.146 51.4785 39.72 50.4425 40.168C49.4345 40.616 48.3005 40.84 47.0405 40.84ZM49.2665 38.236C50.1625 38.236 50.8905 37.914 51.4505 37.27C52.0385 36.626 52.5005 35.842 52.8365 34.918C53.1725 33.994 53.4105 33.098 53.5505 32.23L55.5245 21.268C55.0765 20.932 54.6005 20.68 54.0965 20.512C53.6205 20.344 53.1725 20.26 52.7525 20.26C51.9405 20.26 51.2125 20.554 50.5685 21.142C49.9245 21.73 49.3645 22.528 48.8885 23.536C48.4405 24.544 48.0625 25.678 47.7545 26.938C47.4745 28.17 47.2645 29.43 47.1245 30.718C47.0125 32.006 46.9565 33.224 46.9565 34.372C46.9565 35.38 47.1105 36.276 47.4185 37.06C47.7265 37.844 48.3425 38.236 49.2665 38.236Z" fill="white"/>
<path d="M63.8605 40.672L68.1025 18.58L73.5625 17.908L72.9745 21.856C73.5625 20.568 74.3885 19.56 75.4525 18.832C76.5165 18.104 77.7625 17.74 79.1905 17.74C80.7025 17.74 81.8365 18.16 82.5925 19C83.3485 19.812 83.7265 20.904 83.7265 22.276C83.7265 23.844 83.2645 25.174 82.3405 26.266C81.4445 27.33 80.2825 27.862 78.8545 27.862C78.4345 27.862 78.0145 27.806 77.5945 27.694C77.1745 27.582 76.8525 27.386 76.6285 27.106C77.0485 26.546 77.3985 25.846 77.6785 25.006C77.9585 24.166 78.0985 23.396 78.0985 22.696C78.0985 22.192 78.0005 21.786 77.8045 21.478C77.6085 21.142 77.2445 20.974 76.7125 20.974C76.1805 20.974 75.6905 21.17 75.2425 21.562C74.8225 21.926 74.4445 22.444 74.1085 23.116C73.8005 23.76 73.5205 24.502 73.2685 25.342C73.0445 26.182 72.8485 27.064 72.6805 27.988L70.6645 40L63.8605 40.672Z" fill="white"/>
<path d="M91.5437 40.84C90.6757 40.84 89.6817 40.756 88.5617 40.588C87.4697 40.42 86.4057 40.154 85.3697 39.79C84.3617 39.426 83.4937 38.95 82.7657 38.362L86.2097 20.806L91.7117 21.226C92.4397 20.162 93.3637 19.322 94.4837 18.706C95.6037 18.062 96.8777 17.74 98.3057 17.74C99.7897 17.74 100.98 18.09 101.876 18.79C102.8 19.462 103.458 20.414 103.85 21.646C104.27 22.85 104.48 24.25 104.48 25.846C104.48 27.834 104.2 29.724 103.64 31.516C103.108 33.308 102.296 34.904 101.204 36.304C100.112 37.704 98.7537 38.81 97.1297 39.622C95.5337 40.434 93.6717 40.84 91.5437 40.84ZM92.2997 38.32C93.0837 38.32 93.7837 38.04 94.3997 37.48C95.0157 36.892 95.5477 36.136 95.9957 35.212C96.4717 34.26 96.8637 33.196 97.1717 32.02C97.5077 30.844 97.7457 29.654 97.8857 28.45C98.0537 27.218 98.1377 26.07 98.1377 25.006C98.1377 23.634 97.9837 22.598 97.6757 21.898C97.3957 21.17 96.8217 20.806 95.9537 20.806C95.2257 20.806 94.5817 21.03 94.0217 21.478C93.4897 21.926 93.0277 22.5 92.6357 23.2C92.2717 23.9 91.9637 24.642 91.7117 25.426C91.4877 26.21 91.3197 26.952 91.2077 27.652L89.4017 37.312C89.8217 37.648 90.2977 37.9 90.8297 38.068C91.3617 38.236 91.8517 38.32 92.2997 38.32ZM91.7117 22.066L86.0417 21.688C86.2657 20.512 86.4757 19.294 86.6717 18.034C86.8957 16.774 87.0777 15.528 87.2177 14.296C87.3857 13.064 87.4837 11.958 87.5117 10.978C87.5397 10.642 87.5397 10.334 87.5117 10.054C87.5117 9.74603 87.4977 9.45203 87.4697 9.17203C87.9737 8.86403 88.5057 8.65403 89.0657 8.54203C89.6537 8.40203 90.2137 8.33203 90.7457 8.33203C91.6977 8.33203 92.5097 8.58403 93.1817 9.08803C93.8537 9.56403 94.1897 10.418 94.1897 11.65C94.1897 12.406 94.0777 13.344 93.8537 14.464C93.6577 15.584 93.3637 16.788 92.9717 18.076C92.6077 19.364 92.1877 20.694 91.7117 22.066Z" fill="white"/>
<path d="M114.679 40.84C113.027 40.84 111.571 40.532 110.311 39.916C109.051 39.3 108.071 38.362 107.371 37.102C106.699 35.842 106.363 34.232 106.363 32.272C106.363 30.48 106.615 28.73 107.119 27.022C107.623 25.286 108.393 23.718 109.429 22.318C110.493 20.918 111.837 19.812 113.461 19C115.085 18.16 117.017 17.74 119.257 17.74C120.405 17.74 121.469 17.894 122.449 18.202C123.429 18.482 124.213 18.986 124.801 19.714C125.389 20.442 125.683 21.464 125.683 22.78C125.683 24.264 125.249 25.538 124.381 26.602C123.513 27.666 122.281 28.492 120.685 29.08C119.117 29.668 117.241 29.99 115.057 30.046C114.721 30.074 114.343 30.088 113.923 30.088C113.531 30.06 113.181 30.046 112.873 30.046C112.845 30.41 112.817 30.788 112.789 31.18C112.761 31.544 112.747 31.88 112.747 32.188C112.747 33.532 113.013 34.582 113.545 35.338C114.077 36.066 115.029 36.43 116.401 36.43C117.549 36.43 118.627 36.178 119.635 35.674C120.671 35.142 121.455 34.4 121.987 33.448C122.379 33.616 122.645 33.868 122.785 34.204C122.953 34.54 123.037 34.904 123.037 35.296C123.037 36.332 122.673 37.27 121.945 38.11C121.217 38.95 120.223 39.608 118.963 40.084C117.703 40.588 116.275 40.84 114.679 40.84ZM113.125 28.114C114.105 28.114 115.015 27.988 115.855 27.736C116.695 27.456 117.437 27.078 118.081 26.602C118.753 26.126 119.271 25.524 119.635 24.796C119.999 24.068 120.181 23.256 120.181 22.36C120.153 21.604 119.985 21.03 119.677 20.638C119.397 20.218 118.935 20.008 118.291 20.008C117.675 20.008 117.087 20.218 116.527 20.638C115.967 21.03 115.463 21.59 115.015 22.318C114.595 23.046 114.217 23.9 113.881 24.88C113.573 25.86 113.321 26.938 113.125 28.114Z" fill="white"/>
<path d="M126.204 40.672L130.446 18.58L135.906 17.908L135.318 21.856C135.906 20.568 136.732 19.56 137.796 18.832C138.86 18.104 140.106 17.74 141.534 17.74C143.046 17.74 144.18 18.16 144.936 19C145.692 19.812 146.07 20.904 146.07 22.276C146.07 23.844 145.608 25.174 144.684 26.266C143.788 27.33 142.626 27.862 141.198 27.862C140.778 27.862 140.358 27.806 139.938 27.694C139.518 27.582 139.196 27.386 138.972 27.106C139.392 26.546 139.742 25.846 140.022 25.006C140.302 24.166 140.442 23.396 140.442 22.696C140.442 22.192 140.344 21.786 140.148 21.478C139.952 21.142 139.588 20.974 139.056 20.974C138.524 20.974 138.034 21.17 137.586 21.562C137.166 21.926 136.788 22.444 136.452 23.116C136.144 23.76 135.864 24.502 135.612 25.342C135.388 26.182 135.192 27.064 135.024 27.988L133.008 40L126.204 40.672Z" fill="white"/>
<path d="M155.651 40.84C152.459 40.84 149.995 39.916 148.259 38.068C146.551 36.192 145.697 33.434 145.697 29.794C145.697 27.974 145.907 26.196 146.327 24.46C146.775 22.696 147.419 21.03 148.259 19.462C149.099 17.894 150.135 16.508 151.367 15.304C152.627 14.1 154.069 13.162 155.693 12.49C157.345 11.79 159.179 11.44 161.195 11.44C162.903 11.44 164.303 11.734 165.395 12.322C166.515 12.91 167.341 13.694 167.873 14.674C168.433 15.626 168.713 16.69 168.713 17.866C168.713 19.042 168.447 20.134 167.915 21.142C167.411 22.15 166.711 22.962 165.815 23.578C164.919 24.194 163.911 24.502 162.791 24.502C161.587 24.502 160.621 24.208 159.893 23.62C159.165 23.004 158.801 22.248 158.801 21.352C158.801 21.016 158.829 20.736 158.885 20.512C158.997 20.512 159.095 20.526 159.179 20.554C159.291 20.582 159.403 20.596 159.515 20.596C160.327 20.568 160.985 20.372 161.489 20.008C161.993 19.616 162.357 19.154 162.581 18.622C162.833 18.09 162.959 17.586 162.959 17.11C162.959 16.326 162.721 15.682 162.245 15.178C161.769 14.646 161.083 14.38 160.187 14.38C159.207 14.38 158.325 14.674 157.541 15.262C156.757 15.85 156.071 16.648 155.483 17.656C154.895 18.636 154.391 19.756 153.971 21.016C153.579 22.276 153.271 23.578 153.047 24.922C152.851 26.266 152.753 27.554 152.753 28.786C152.753 30.214 152.907 31.46 153.215 32.524C153.523 33.56 154.041 34.358 154.769 34.918C155.497 35.45 156.463 35.716 157.667 35.716C158.423 35.716 159.123 35.576 159.767 35.296C160.439 34.988 161.041 34.596 161.573 34.12C162.133 33.616 162.609 33.042 163.001 32.398C163.393 31.754 163.701 31.082 163.925 30.382C164.653 30.578 165.213 30.984 165.605 31.6C166.025 32.188 166.235 32.874 166.235 33.658C166.235 34.442 166.011 35.254 165.563 36.094C165.115 36.934 164.443 37.718 163.547 38.446C162.679 39.174 161.573 39.748 160.229 40.168C158.913 40.616 157.387 40.84 155.651 40.84Z" fill="white"/>
<path d="M175.337 40.84C174.049 40.84 172.957 40.602 172.061 40.126C171.165 39.678 170.493 39.02 170.045 38.152C169.597 37.284 169.373 36.22 169.373 34.96C169.373 34.232 169.471 33.224 169.667 31.936C169.863 30.62 170.157 28.884 170.549 26.728C170.969 24.572 171.501 21.856 172.145 18.58L178.655 17.908C178.067 20.848 177.577 23.312 177.185 25.3C176.793 27.26 176.471 28.87 176.219 30.13C175.995 31.39 175.827 32.426 175.715 33.238C175.631 34.022 175.589 34.694 175.589 35.254C175.589 35.758 175.645 36.234 175.757 36.682C175.869 37.13 176.079 37.508 176.387 37.816C176.695 38.096 177.143 38.236 177.731 38.236C178.599 38.236 179.327 37.928 179.915 37.312C180.503 36.668 180.965 35.884 181.301 34.96C181.637 34.036 181.889 33.126 182.057 32.23L184.577 18.58L191.129 17.908L187.937 34.666C187.909 34.918 187.867 35.212 187.811 35.548C187.755 35.884 187.727 36.178 187.727 36.43C187.727 36.906 187.853 37.326 188.105 37.69C188.357 38.026 188.763 38.222 189.323 38.278C189.183 38.866 188.875 39.356 188.399 39.748C187.951 40.112 187.433 40.378 186.845 40.546C186.285 40.742 185.711 40.84 185.123 40.84C184.283 40.84 183.527 40.63 182.855 40.21C182.211 39.818 181.791 39.23 181.595 38.446C180.923 39.258 180.013 39.86 178.865 40.252C177.717 40.644 176.541 40.84 175.337 40.84Z" fill="white"/>
<path d="M198.027 40.84C196.935 40.84 195.998 40.532 195.214 39.916C194.43 39.3 194.038 38.404 194.038 37.228C194.038 36.668 194.107 35.926 194.247 35.002C194.415 34.05 194.598 33.042 194.794 31.978C194.99 30.914 195.186 29.906 195.382 28.954C195.606 27.974 195.76 27.19 195.844 26.602L197.061 20.47H194.331L194.499 19.21C196.011 18.706 197.509 18.034 198.993 17.194C200.477 16.326 201.877 15.332 203.193 14.212H204.831L203.908 18.58H207.184L206.805 20.47H203.529L200.883 34.036C200.799 34.428 200.73 34.806 200.674 35.17C200.618 35.506 200.589 35.842 200.589 36.178C200.561 37.074 200.743 37.662 201.135 37.942C201.555 38.222 202.185 38.278 203.025 38.11C202.689 38.838 202.255 39.398 201.723 39.79C201.219 40.182 200.645 40.448 200.001 40.588C199.357 40.756 198.699 40.84 198.027 40.84Z" fill="white"/>
</svg>
