<svg width="200" height="33" viewBox="0 0 200 33" fill="none" xmlns="http://www.w3.org/2000/svg">
<path d="M14.582 32.966C13.21 32.966 11.95 32.882 10.802 32.714C9.65402 32.574 8.68802 32.35 7.90402 32.042C7.14802 31.762 6.64402 31.426 6.39202 31.034C6.78402 30.754 7.09202 30.432 7.31602 30.068C7.56802 29.676 7.77802 29.186 7.94602 28.598C8.14202 27.982 8.31002 27.226 8.45002 26.33L11.012 13.058C11.32 11.322 11.88 10.006 12.692 9.11C13.532 8.214 14.806 7.766 16.514 7.766C17.438 7.766 18.208 7.948 18.824 8.312C19.44 8.648 19.79 9.096 19.874 9.656C19.118 9.964 18.614 10.496 18.362 11.252C18.138 12.008 17.942 12.778 17.774 13.562L17.27 16.082H18.446C20.07 16.054 21.358 15.788 22.31 15.284C23.262 14.78 23.948 14.122 24.368 13.31C24.816 12.498 25.026 11.63 24.998 10.706C24.998 9.138 24.312 7.934 22.94 7.094C21.596 6.254 19.678 5.834 17.186 5.834C15.926 5.834 14.666 5.988 13.406 6.296C12.146 6.604 10.998 7.094 9.96202 7.766C8.92602 8.438 8.08602 9.306 7.44202 10.37C6.82602 11.406 6.51802 12.666 6.51802 14.15C6.49002 14.934 6.56002 15.676 6.72802 16.376C6.89602 17.048 7.20402 17.818 7.65202 18.686C7.28802 19.022 6.85402 19.274 6.35002 19.442C5.87402 19.61 5.42602 19.694 5.00602 19.694C3.99802 19.694 3.13002 19.456 2.40202 18.98C1.70202 18.504 1.15602 17.86 0.764018 17.048C0.400018 16.236 0.218018 15.326 0.218018 14.318C0.218018 12.274 0.890018 10.412 2.23402 8.732C3.60602 7.052 5.58002 5.708 8.15602 4.7C10.732 3.692 13.868 3.188 17.564 3.188C19.3 3.188 20.966 3.328 22.562 3.608C24.158 3.86 25.572 4.266 26.804 4.826C28.036 5.358 29.002 6.072 29.702 6.968C30.402 7.836 30.752 8.9 30.752 10.16C30.752 11.14 30.514 12.064 30.038 12.932C29.59 13.8 28.96 14.57 28.148 15.242C27.364 15.886 26.468 16.418 25.46 16.838C26.3 17.09 27.112 17.468 27.896 17.972C28.68 18.448 29.31 19.106 29.786 19.946C30.29 20.758 30.528 21.78 30.5 23.012C30.472 24.524 30.108 25.896 29.408 27.128C28.708 28.36 27.686 29.41 26.342 30.278C25.026 31.146 23.374 31.804 21.386 32.252C19.426 32.728 17.158 32.966 14.582 32.966ZM15.758 30.11C17.466 30.11 18.922 29.802 20.126 29.186C21.33 28.57 22.24 27.73 22.856 26.666C23.472 25.602 23.78 24.426 23.78 23.138C23.78 21.57 23.206 20.478 22.058 19.862C20.91 19.218 19.132 18.868 16.724 18.812L15.212 26.624C15.016 27.632 14.778 28.402 14.498 28.934C14.246 29.466 13.966 29.83 13.658 30.026C13.994 30.054 14.33 30.082 14.666 30.11C15.03 30.11 15.394 30.11 15.758 30.11Z" fill="white"/>
<path d="M39.0405 32.84C37.5285 32.84 36.2965 32.504 35.3445 31.832C34.3925 31.132 33.6925 30.18 33.2445 28.976C32.7965 27.744 32.5725 26.33 32.5725 24.734C32.5725 22.634 32.8805 20.674 33.4965 18.854C34.1125 17.034 34.9665 15.438 36.0585 14.066C37.1785 12.694 38.4805 11.63 39.9645 10.874C41.4485 10.118 43.0585 9.74 44.7945 9.74C46.2225 9.74 47.6925 10.02 49.2045 10.58L54.6225 9.908L51.4305 26.666C51.4025 26.918 51.3605 27.212 51.3045 27.548C51.2485 27.884 51.2205 28.178 51.2205 28.43C51.2205 28.906 51.3465 29.326 51.5985 29.69C51.8785 30.026 52.2985 30.222 52.8585 30.278C52.6905 30.866 52.3825 31.356 51.9345 31.748C51.4865 32.112 50.9685 32.378 50.3805 32.546C49.8205 32.742 49.2325 32.84 48.6165 32.84C47.7765 32.84 47.0205 32.63 46.3485 32.21C45.7045 31.818 45.2845 31.23 45.0885 30.446C44.3605 31.146 43.4785 31.72 42.4425 32.168C41.4345 32.616 40.3005 32.84 39.0405 32.84ZM41.2665 30.236C42.1625 30.236 42.8905 29.914 43.4505 29.27C44.0385 28.626 44.5005 27.842 44.8365 26.918C45.1725 25.994 45.4105 25.098 45.5505 24.23L47.5245 13.268C47.0765 12.932 46.6005 12.68 46.0965 12.512C45.6205 12.344 45.1725 12.26 44.7525 12.26C43.9405 12.26 43.2125 12.554 42.5685 13.142C41.9245 13.73 41.3645 14.528 40.8885 15.536C40.4405 16.544 40.0625 17.678 39.7545 18.938C39.4745 20.17 39.2645 21.43 39.1245 22.718C39.0125 24.006 38.9565 25.224 38.9565 26.372C38.9565 27.38 39.1105 28.276 39.4185 29.06C39.7265 29.844 40.3425 30.236 41.2665 30.236Z" fill="white"/>
<path d="M55.8605 32.672L60.1025 10.58L65.5625 9.908L64.9745 13.856C65.5625 12.568 66.3885 11.56 67.4525 10.832C68.5165 10.104 69.7625 9.74 71.1905 9.74C72.7025 9.74 73.8365 10.16 74.5925 11C75.3485 11.812 75.7265 12.904 75.7265 14.276C75.7265 15.844 75.2645 17.174 74.3405 18.266C73.4445 19.33 72.2825 19.862 70.8545 19.862C70.4345 19.862 70.0145 19.806 69.5945 19.694C69.1745 19.582 68.8525 19.386 68.6285 19.106C69.0485 18.546 69.3985 17.846 69.6785 17.006C69.9585 16.166 70.0985 15.396 70.0985 14.696C70.0985 14.192 70.0005 13.786 69.8045 13.478C69.6085 13.142 69.2445 12.974 68.7125 12.974C68.1805 12.974 67.6905 13.17 67.2425 13.562C66.8225 13.926 66.4445 14.444 66.1085 15.116C65.8005 15.76 65.5205 16.502 65.2685 17.342C65.0445 18.182 64.8485 19.064 64.6805 19.988L62.6645 32L55.8605 32.672Z" fill="white"/>
<path d="M83.5437 32.84C82.6757 32.84 81.6817 32.756 80.5617 32.588C79.4697 32.42 78.4057 32.154 77.3697 31.79C76.3617 31.426 75.4937 30.95 74.7657 30.362L78.2097 12.806L83.7117 13.226C84.4397 12.162 85.3637 11.322 86.4837 10.706C87.6037 10.062 88.8777 9.74 90.3057 9.74C91.7897 9.74 92.9797 10.09 93.8757 10.79C94.7997 11.462 95.4577 12.414 95.8497 13.646C96.2697 14.85 96.4797 16.25 96.4797 17.846C96.4797 19.834 96.1997 21.724 95.6397 23.516C95.1077 25.308 94.2957 26.904 93.2037 28.304C92.1117 29.704 90.7537 30.81 89.1297 31.622C87.5337 32.434 85.6717 32.84 83.5437 32.84ZM84.2997 30.32C85.0837 30.32 85.7837 30.04 86.3997 29.48C87.0157 28.892 87.5477 28.136 87.9957 27.212C88.4717 26.26 88.8637 25.196 89.1717 24.02C89.5077 22.844 89.7457 21.654 89.8857 20.45C90.0537 19.218 90.1377 18.07 90.1377 17.006C90.1377 15.634 89.9837 14.598 89.6757 13.898C89.3957 13.17 88.8217 12.806 87.9537 12.806C87.2257 12.806 86.5817 13.03 86.0217 13.478C85.4897 13.926 85.0277 14.5 84.6357 15.2C84.2717 15.9 83.9637 16.642 83.7117 17.426C83.4877 18.21 83.3197 18.952 83.2077 19.652L81.4017 29.312C81.8217 29.648 82.2977 29.9 82.8297 30.068C83.3617 30.236 83.8517 30.32 84.2997 30.32ZM83.7117 14.066L78.0417 13.688C78.2657 12.512 78.4757 11.294 78.6717 10.034C78.8957 8.774 79.0777 7.528 79.2177 6.296C79.3857 5.064 79.4837 3.958 79.5117 2.978C79.5397 2.642 79.5397 2.334 79.5117 2.054C79.5117 1.746 79.4977 1.452 79.4697 1.172C79.9737 0.863999 80.5057 0.653999 81.0657 0.542001C81.6537 0.402001 82.2137 0.332001 82.7457 0.332001C83.6977 0.332001 84.5097 0.584 85.1817 1.088C85.8537 1.564 86.1897 2.418 86.1897 3.65C86.1897 4.406 86.0777 5.344 85.8537 6.464C85.6577 7.584 85.3637 8.788 84.9717 10.076C84.6077 11.364 84.1877 12.694 83.7117 14.066Z" fill="white"/>
<path d="M106.679 32.84C105.027 32.84 103.571 32.532 102.311 31.916C101.051 31.3 100.071 30.362 99.3715 29.102C98.6995 27.842 98.3635 26.232 98.3635 24.272C98.3635 22.48 98.6155 20.73 99.1195 19.022C99.6235 17.286 100.393 15.718 101.429 14.318C102.493 12.918 103.837 11.812 105.461 11C107.085 10.16 109.017 9.74 111.257 9.74C112.405 9.74 113.469 9.894 114.449 10.202C115.429 10.482 116.213 10.986 116.801 11.714C117.389 12.442 117.683 13.464 117.683 14.78C117.683 16.264 117.249 17.538 116.381 18.602C115.513 19.666 114.281 20.492 112.685 21.08C111.117 21.668 109.241 21.99 107.057 22.046C106.721 22.074 106.343 22.088 105.923 22.088C105.531 22.06 105.181 22.046 104.873 22.046C104.845 22.41 104.817 22.788 104.789 23.18C104.761 23.544 104.747 23.88 104.747 24.188C104.747 25.532 105.013 26.582 105.545 27.338C106.077 28.066 107.029 28.43 108.401 28.43C109.549 28.43 110.627 28.178 111.635 27.674C112.671 27.142 113.455 26.4 113.987 25.448C114.379 25.616 114.645 25.868 114.785 26.204C114.953 26.54 115.037 26.904 115.037 27.296C115.037 28.332 114.673 29.27 113.945 30.11C113.217 30.95 112.223 31.608 110.963 32.084C109.703 32.588 108.275 32.84 106.679 32.84ZM105.125 20.114C106.105 20.114 107.015 19.988 107.855 19.736C108.695 19.456 109.437 19.078 110.081 18.602C110.753 18.126 111.271 17.524 111.635 16.796C111.999 16.068 112.181 15.256 112.181 14.36C112.153 13.604 111.985 13.03 111.677 12.638C111.397 12.218 110.935 12.008 110.291 12.008C109.675 12.008 109.087 12.218 108.527 12.638C107.967 13.03 107.463 13.59 107.015 14.318C106.595 15.046 106.217 15.9 105.881 16.88C105.573 17.86 105.321 18.938 105.125 20.114Z" fill="white"/>
<path d="M118.204 32.672L122.446 10.58L127.906 9.908L127.318 13.856C127.906 12.568 128.732 11.56 129.796 10.832C130.86 10.104 132.106 9.74 133.534 9.74C135.046 9.74 136.18 10.16 136.936 11C137.692 11.812 138.07 12.904 138.07 14.276C138.07 15.844 137.608 17.174 136.684 18.266C135.788 19.33 134.626 19.862 133.198 19.862C132.778 19.862 132.358 19.806 131.938 19.694C131.518 19.582 131.196 19.386 130.972 19.106C131.392 18.546 131.742 17.846 132.022 17.006C132.302 16.166 132.442 15.396 132.442 14.696C132.442 14.192 132.344 13.786 132.148 13.478C131.952 13.142 131.588 12.974 131.056 12.974C130.524 12.974 130.034 13.17 129.586 13.562C129.166 13.926 128.788 14.444 128.452 15.116C128.144 15.76 127.864 16.502 127.612 17.342C127.388 18.182 127.192 19.064 127.024 19.988L125.008 32L118.204 32.672Z" fill="white"/>
<path d="M147.651 32.84C144.459 32.84 141.995 31.916 140.259 30.068C138.551 28.192 137.697 25.434 137.697 21.794C137.697 19.974 137.907 18.196 138.327 16.46C138.775 14.696 139.419 13.03 140.259 11.462C141.099 9.894 142.135 8.508 143.367 7.304C144.627 6.1 146.069 5.162 147.693 4.49C149.345 3.79 151.179 3.44 153.195 3.44C154.903 3.44 156.303 3.734 157.395 4.322C158.515 4.91 159.341 5.694 159.873 6.674C160.433 7.626 160.713 8.69 160.713 9.866C160.713 11.042 160.447 12.134 159.915 13.142C159.411 14.15 158.711 14.962 157.815 15.578C156.919 16.194 155.911 16.502 154.791 16.502C153.587 16.502 152.621 16.208 151.893 15.62C151.165 15.004 150.801 14.248 150.801 13.352C150.801 13.016 150.829 12.736 150.885 12.512C150.997 12.512 151.095 12.526 151.179 12.554C151.291 12.582 151.403 12.596 151.515 12.596C152.327 12.568 152.985 12.372 153.489 12.008C153.993 11.616 154.357 11.154 154.581 10.622C154.833 10.09 154.959 9.586 154.959 9.11C154.959 8.326 154.721 7.682 154.245 7.178C153.769 6.646 153.083 6.38 152.187 6.38C151.207 6.38 150.325 6.674 149.541 7.262C148.757 7.85 148.071 8.648 147.483 9.656C146.895 10.636 146.391 11.756 145.971 13.016C145.579 14.276 145.271 15.578 145.047 16.922C144.851 18.266 144.753 19.554 144.753 20.786C144.753 22.214 144.907 23.46 145.215 24.524C145.523 25.56 146.041 26.358 146.769 26.918C147.497 27.45 148.463 27.716 149.667 27.716C150.423 27.716 151.123 27.576 151.767 27.296C152.439 26.988 153.041 26.596 153.573 26.12C154.133 25.616 154.609 25.042 155.001 24.398C155.393 23.754 155.701 23.082 155.925 22.382C156.653 22.578 157.213 22.984 157.605 23.6C158.025 24.188 158.235 24.874 158.235 25.658C158.235 26.442 158.011 27.254 157.563 28.094C157.115 28.934 156.443 29.718 155.547 30.446C154.679 31.174 153.573 31.748 152.229 32.168C150.913 32.616 149.387 32.84 147.651 32.84Z" fill="white"/>
<path d="M167.337 32.84C166.049 32.84 164.957 32.602 164.061 32.126C163.165 31.678 162.493 31.02 162.045 30.152C161.597 29.284 161.373 28.22 161.373 26.96C161.373 26.232 161.471 25.224 161.667 23.936C161.863 22.62 162.157 20.884 162.549 18.728C162.969 16.572 163.501 13.856 164.145 10.58L170.655 9.908C170.067 12.848 169.577 15.312 169.185 17.3C168.793 19.26 168.471 20.87 168.219 22.13C167.995 23.39 167.827 24.426 167.715 25.238C167.631 26.022 167.589 26.694 167.589 27.254C167.589 27.758 167.645 28.234 167.757 28.682C167.869 29.13 168.079 29.508 168.387 29.816C168.695 30.096 169.143 30.236 169.731 30.236C170.599 30.236 171.327 29.928 171.915 29.312C172.503 28.668 172.965 27.884 173.301 26.96C173.637 26.036 173.889 25.126 174.057 24.23L176.577 10.58L183.129 9.908L179.937 26.666C179.909 26.918 179.867 27.212 179.811 27.548C179.755 27.884 179.727 28.178 179.727 28.43C179.727 28.906 179.853 29.326 180.105 29.69C180.357 30.026 180.763 30.222 181.323 30.278C181.183 30.866 180.875 31.356 180.399 31.748C179.951 32.112 179.433 32.378 178.845 32.546C178.285 32.742 177.711 32.84 177.123 32.84C176.283 32.84 175.527 32.63 174.855 32.21C174.211 31.818 173.791 31.23 173.595 30.446C172.923 31.258 172.013 31.86 170.865 32.252C169.717 32.644 168.541 32.84 167.337 32.84Z" fill="white"/>
<path d="M190.027 32.84C188.935 32.84 187.998 32.532 187.214 31.916C186.43 31.3 186.038 30.404 186.038 29.228C186.038 28.668 186.107 27.926 186.247 27.002C186.415 26.05 186.598 25.042 186.794 23.978C186.99 22.914 187.186 21.906 187.382 20.954C187.606 19.974 187.76 19.19 187.844 18.602L189.061 12.47H186.331L186.499 11.21C188.011 10.706 189.509 10.034 190.993 9.194C192.477 8.326 193.877 7.332 195.193 6.212H196.831L195.908 10.58H199.184L198.805 12.47H195.529L192.883 26.036C192.799 26.428 192.73 26.806 192.674 27.17C192.618 27.506 192.589 27.842 192.589 28.178C192.561 29.074 192.743 29.662 193.135 29.942C193.555 30.222 194.185 30.278 195.025 30.11C194.689 30.838 194.255 31.398 193.723 31.79C193.219 32.182 192.645 32.448 192.001 32.588C191.357 32.756 190.699 32.84 190.027 32.84Z" fill="white"/>
</svg>
