<svg width="42" height="42" viewBox="0 0 42 42" fill="none" xmlns="http://www.w3.org/2000/svg">
<circle cx="21" cy="21" r="21" fill="black"/>
<path d="M20.2902 33C19.2118 33 18.2215 32.9351 17.3191 32.8054C16.4168 32.6972 15.6575 32.5242 15.0413 32.2863C14.447 32.0701 14.0509 31.8105 13.8528 31.5078C14.1609 31.2915 14.403 31.0428 14.5791 30.7616C14.7772 30.4589 14.9422 30.0804 15.0743 29.6262C15.2283 29.1504 15.3604 28.5665 15.4704 27.8745L17.4842 17.6234C17.7263 16.2826 18.1664 15.2661 18.8047 14.574C19.4649 13.882 20.4663 13.536 21.8088 13.536C22.5351 13.536 23.1403 13.6765 23.6245 13.9577C24.1087 14.2172 24.3838 14.5632 24.4498 14.9958C23.8556 15.2337 23.4594 15.6446 23.2613 16.2285C23.0853 16.8124 22.9312 17.4071 22.7992 18.0127L22.403 19.9591H23.3274C24.6039 19.9375 25.6162 19.732 26.3645 19.3427C27.1128 18.9535 27.652 18.4452 27.9821 17.8181C28.3342 17.1909 28.4993 16.5205 28.4773 15.8068C28.4773 14.5957 27.9381 13.6657 26.8597 13.0169C25.8033 12.3681 24.2957 12.0437 22.337 12.0437C21.3466 12.0437 20.3563 12.1627 19.3659 12.4006C18.3755 12.6385 17.4732 13.0169 16.6589 13.536C15.8446 14.055 15.1843 14.7254 14.6781 15.5473C14.1939 16.3474 13.9519 17.3206 13.9519 18.4669C13.9298 19.0724 13.9849 19.6455 14.1169 20.1862C14.249 20.7052 14.4911 21.3 14.8432 21.9704C14.5571 22.2299 14.216 22.4245 13.8198 22.5543C13.4457 22.6841 13.0935 22.7489 12.7634 22.7489C11.9711 22.7489 11.2889 22.5651 10.7166 22.1975C10.1664 21.8298 9.73728 21.3324 9.42916 20.7052C9.14305 20.078 9 19.3752 9 18.5966C9 17.0179 9.5282 15.5797 10.5846 14.2821C11.663 12.9845 13.2146 11.9464 15.2393 11.1678C17.2641 10.3893 19.729 10 22.6341 10C23.9986 10 25.3081 10.1081 26.5626 10.3244C27.8171 10.519 28.9285 10.8326 29.8968 11.2652C30.8652 11.6761 31.6245 12.2276 32.1747 12.9196C32.7249 13.59 33 14.4118 33 15.385C33 16.142 32.8129 16.8557 32.4388 17.5261C32.0867 18.1965 31.5915 18.7913 30.9532 19.3103C30.337 19.8077 29.6327 20.2186 28.8404 20.543C29.5007 20.7377 30.1389 21.0296 30.7552 21.4189C31.3714 21.7866 31.8666 22.2948 32.2407 22.9436C32.6369 23.5708 32.8239 24.3601 32.8019 25.3117C32.7799 26.4796 32.4938 27.5393 31.9436 28.4908C31.3934 29.4424 30.5901 30.2534 29.5337 30.9238C28.4993 31.5943 27.2008 32.1025 25.6382 32.4485C24.0977 32.8162 22.315 33 20.2902 33ZM21.2146 30.7941C22.5571 30.7941 23.7015 30.5562 24.6479 30.0804C25.5942 29.6046 26.3095 28.9558 26.7937 28.134C27.2779 27.3122 27.5199 26.4039 27.5199 25.409C27.5199 24.1979 27.0688 23.3545 26.1664 22.8787C25.2641 22.3813 23.8666 22.111 21.9739 22.0677L20.7854 28.1016C20.6314 28.8801 20.4443 29.4748 20.2242 29.8858C20.0261 30.2967 19.8061 30.5778 19.564 30.7292C19.8281 30.7508 20.0922 30.7725 20.3563 30.7941C20.6424 30.7941 20.9285 30.7941 21.2146 30.7941Z" fill="white"/>
</svg>
